<svg width="48" height="44" viewBox="0 0 48 44" fill="none" xmlns="http://www.w3.org/2000/svg">
<path d="M24 25.7926C26.8821 25.7926 29.4908 24.3762 31.3795 22.0873C33.2661 19.8008 34.4348 16.6392 34.4348 13.1463C34.4348 9.6534 33.2661 6.49182 31.3795 4.20537C29.4908 1.91639 26.8821 0.5 24 0.5C21.1179 0.5 18.5092 1.91639 16.6205 4.20537C14.7339 6.49182 13.5652 9.6534 13.5652 13.1463C13.5652 16.6392 14.7339 19.8008 16.6205 22.0873C17.5885 23.2636 18.7387 24.1966 20.0051 24.8325C21.2716 25.4684 22.6292 25.7947 24 25.7926ZM40.6957 28.3219C41.3812 28.3236 42.0603 28.1611 42.6939 27.844C43.3275 27.5268 43.9032 27.0611 44.388 26.4736C44.8727 25.8861 45.257 25.1884 45.5187 24.4205C45.7804 23.6526 45.9144 22.8296 45.913 21.9987C45.913 20.2535 45.3308 18.6728 44.3854 17.527C43.9014 16.939 43.3262 16.4727 42.693 16.155C42.0598 15.8372 41.381 15.6743 40.6957 15.6756C40.0101 15.6739 39.331 15.8363 38.6974 16.1535C38.0638 16.4707 37.4881 16.9364 37.0033 17.5239C36.5186 18.1114 36.1343 18.8091 35.8726 19.577C35.6109 20.3449 35.4769 21.1679 35.4783 21.9987C35.4772 22.8295 35.6114 23.6523 35.8732 24.4201C36.135 25.1878 36.5192 25.8854 37.0039 26.4729C37.4886 27.0603 38.0642 27.526 38.6977 27.8433C39.3312 28.1606 40.0102 28.3232 40.6957 28.3219ZM40.6957 29.8142C37.9179 29.8142 35.8289 30.841 34.608 32.2625C32.281 29.9432 28.6017 28.3219 24 28.3219C19.271 28.3219 15.6626 29.9609 13.3732 32.2777C12.1294 30.8486 10.0174 29.8142 7.30435 29.8142C2.73809 29.8142 0 32.5711 0 35.333C0 36.7115 2.73809 38.095 7.30435 38.095C8.56487 38.095 9.696 37.966 10.6915 37.7586L10.608 38.4415C10.608 40.9707 15.6292 43.5 24 43.5C31.8511 43.5 37.392 40.9707 37.392 38.4415L37.3503 37.7965C38.3165 37.9811 39.4268 38.095 40.6957 38.095C44.976 38.095 48 36.7115 48 35.333C48 32.5711 45.1346 29.8142 40.6957 29.8142ZM7.30435 28.3219C8.74435 28.3219 10.0487 27.6162 10.9941 26.4705C11.4793 25.8839 11.864 25.1868 12.1262 24.4194C12.3884 23.652 12.5228 22.8293 12.5217 21.9987C12.5231 21.1679 12.3891 20.3449 12.1274 19.577C11.8657 18.8091 11.4814 18.1114 10.9967 17.5239C10.5119 16.9364 9.93621 16.4707 9.30258 16.1535C8.66896 15.8363 7.98989 15.6739 7.30435 15.6756C6.61888 15.6742 5.93994 15.8369 5.30644 16.1542C4.67294 16.4715 4.09734 16.9372 3.61264 17.5246C3.12794 18.112 2.74368 18.8096 2.48187 19.5774C2.22006 20.3452 2.08586 21.168 2.08696 21.9987C2.08558 22.8296 2.21959 23.6526 2.48131 24.4205C2.74302 25.1884 3.12727 25.8861 3.61203 26.4736C4.09678 27.0611 4.67249 27.5268 5.30611 27.844C5.93974 28.1611 6.6188 28.3236 7.30435 28.3219Z" fill="white"/>
</svg>
