<svg width="40" height="40" viewBox="0 0 40 40" fill="none" xmlns="http://www.w3.org/2000/svg">
<path d="M14.4444 33.6842C13.7852 33.6842 13.1407 33.8694 12.5925 34.2164C12.0444 34.5634 11.6171 35.0566 11.3648 35.6336C11.1126 36.2107 11.0465 36.8456 11.1752 37.4582C11.3038 38.0708 11.6212 38.6334 12.0874 39.0751C12.5536 39.5167 13.1475 39.8175 13.7941 39.9393C14.4407 40.0612 15.111 39.9986 15.7201 39.7596C16.3291 39.5206 16.8497 39.1159 17.216 38.5965C17.5823 38.0772 17.7778 37.4667 17.7778 36.8421C17.7778 36.0046 17.4266 35.2014 16.8015 34.6091C16.1763 34.0169 15.3285 33.6842 14.4444 33.6842ZM37.7778 27.3684H11.1111C10.5217 27.3684 9.95651 27.1466 9.53976 26.7518C9.12302 26.357 8.88889 25.8215 8.88889 25.2632C8.88889 24.7048 9.12302 24.1693 9.53976 23.7745C9.95651 23.3797 10.5217 23.1579 11.1111 23.1579H29.9805C31.4281 23.1535 32.8352 22.7047 33.9909 21.8789C35.1467 21.0531 35.9888 19.8947 36.3911 18.5773L39.9143 6.89453C40.0088 6.5812 40.0253 6.25137 39.9624 5.931C39.8995 5.61063 39.7589 5.30846 39.5518 5.04828C39.3447 4.7881 39.0767 4.57702 38.7689 4.43164C38.461 4.28627 38.1217 4.21058 37.7778 4.21053H10.5313C10.0712 2.98391 9.22321 1.92149 8.10272 1.16803C6.98224 0.414564 5.64379 0.00669631 4.26976 0H2.22222C1.63285 0 1.06762 0.221804 0.650874 0.616617C0.234126 1.01143 0 1.54691 0 2.10526C0 2.66361 0.234126 3.1991 0.650874 3.59391C1.06762 3.98872 1.63285 4.21053 2.22222 4.21053H4.26976C4.75216 4.21212 5.22104 4.36172 5.60619 4.63691C5.99134 4.9121 6.27204 5.29808 6.40625 5.73705L6.75184 6.88387L6.75238 6.89453L10.3982 18.9833C8.70169 19.1562 7.13972 19.9388 6.03392 21.17C4.92813 22.4011 4.3627 23.987 4.45406 25.6012C4.54542 27.2154 5.28662 28.735 6.52503 29.847C7.76344 30.959 9.40479 31.5789 11.1111 31.5789H37.7778C38.3671 31.5789 38.9324 31.3571 39.3491 30.9623C39.7659 30.5675 40 30.032 40 29.4737C40 28.9153 39.7659 28.3799 39.3491 27.985C38.9324 27.5902 38.3671 27.3684 37.7778 27.3684ZM34.8318 8.42105L32.118 17.4198C31.984 17.8591 31.7032 18.2455 31.3178 18.5209C30.9324 18.7963 30.4632 18.9459 29.9805 18.9474H15.0098L14.4432 17.069L11.8365 8.42105H34.8318ZM32.2222 33.6842C31.563 33.6842 30.9185 33.8694 30.3703 34.2164C29.8222 34.5634 29.3949 35.0566 29.1426 35.6336C28.8903 36.2107 28.8243 36.8456 28.9529 37.4582C29.0816 38.0708 29.399 38.6334 29.8652 39.0751C30.3314 39.5167 30.9253 39.8175 31.5719 39.9393C32.2185 40.0612 32.8887 39.9986 33.4978 39.7596C34.1069 39.5206 34.6275 39.1159 34.9938 38.5965C35.3601 38.0772 35.5556 37.4667 35.5556 36.8421C35.5556 36.0046 35.2044 35.2014 34.5792 34.6091C33.9541 34.0169 33.1063 33.6842 32.2222 33.6842Z" fill="white"/>
</svg>
