<svg width="36" height="31" viewBox="0 0 36 31" fill="none" xmlns="http://www.w3.org/2000/svg">
<path d="M34.776 3.52889L23.976 0.0865724H23.85C23.7662 0.0785202 23.6818 0.0785202 23.598 0.0865724H23.184H22.95H22.824L12.6 3.44284L2.37601 0.0865724C2.10531 0.00122274 1.81729 -0.0214384 1.53565 0.0204537C1.25401 0.0623459 0.986795 0.167594 0.756006 0.327535C0.523371 0.48591 0.333483 0.694939 0.202029 0.937354C0.0705743 1.17977 0.00132652 1.44861 6.00036e-06 1.72168V25.8179C-0.000968091 26.1788 0.11668 26.5307 0.336321 26.8242C0.555963 27.1176 0.866488 27.3376 1.22401 27.453L12.024 30.8953C12.3866 31.0084 12.7774 31.0084 13.14 30.8953L23.4 27.6251L33.624 30.9814C33.8151 31.0062 34.0089 31.0062 34.2 30.9814C34.5764 30.9865 34.9437 30.8714 35.244 30.6544C35.4766 30.496 35.6665 30.287 35.798 30.0446C35.9294 29.8021 35.9987 29.5333 36 29.2602V5.164C36.001 4.80317 35.8833 4.45117 35.6637 4.15776C35.444 3.86434 35.1335 3.64436 34.776 3.52889ZM10.8 26.8678L3.6 24.5787V4.11409L10.8 6.40323V26.8678ZM21.6 24.5787L14.4 26.8678V6.40323L21.6 4.11409V24.5787ZM32.4 26.8678L25.2 24.5787V4.11409L32.4 6.40323V26.8678Z" fill="white"/>
</svg>
