<svg width="60" height="58" viewBox="0 0 60 58" fill="none" xmlns="http://www.w3.org/2000/svg">
<path d="M52.4539 17.5357L44.4829 25.2409C44.8371 26.4593 45.0137 27.7194 45.0077 28.9849C45.0077 32.8286 43.4281 36.5149 40.6165 39.2328C37.8049 41.9507 33.9916 43.4776 30.0154 43.4776C28.7062 43.4835 27.4027 43.3127 26.1423 42.9704L20.0455 48.8641C23.218 50.0851 26.6006 50.7161 30.0154 50.724C43.7583 50.724 54.8526 40.3134 59.7751 29.9994C59.9234 29.6804 60 29.3346 60 28.9849C60 28.6352 59.9234 28.2894 59.7751 27.9704C57.9257 24.1371 55.4541 20.6144 52.4539 17.5357ZM59.2679 0.707211C58.7993 0.254384 58.1639 0 57.5013 0C56.8387 0 56.2033 0.254384 55.7347 0.707211L44.6579 11.4149C43.1664 10.5262 41.6039 9.75399 39.9852 9.10574C36.8127 7.88473 33.4301 7.25371 30.0154 7.24584C16.2724 7.24584 5.17807 17.6564 0.25559 27.9704C0.107349 28.2894 0.0307048 28.6352 0.0307048 28.9849C0.0307048 29.3346 0.107349 29.6804 0.25559 29.9994C2.105 33.8327 4.57662 37.3554 7.57684 40.4341C8.71579 41.61 9.93813 42.7076 11.235 43.7192L0.76283 53.8471C0.524177 54.07 0.333819 54.3365 0.202863 54.6312C0.0719077 54.9259 0.00297741 55.2428 9.43436e-05 55.5636C-0.00278872 55.8843 0.0604332 56.2023 0.186071 56.4992C0.311709 56.796 0.497247 57.0657 0.731858 57.2925C0.96647 57.5193 1.24546 57.6987 1.55254 57.8201C1.85962 57.9416 2.18865 58.0027 2.52043 57.9999C2.85221 57.9971 3.18009 57.9305 3.48495 57.8039C3.7898 57.6773 4.06552 57.4933 4.29602 57.2626L59.2679 4.12266C59.7363 3.6697 59.9995 3.05543 59.9995 2.41494C59.9995 1.77444 59.7363 1.16018 59.2679 0.707211ZM15.023 28.9849C15.0203 26.3247 15.7758 23.7153 17.2065 21.4429C18.6373 19.1706 20.688 17.3232 23.1336 16.1036C25.5793 14.884 28.3252 14.3393 31.07 14.5293C33.8149 14.7193 36.4525 15.6366 38.6934 17.1806L35.0603 20.6927C33.1616 19.5894 30.9357 19.1317 28.7368 19.3926C26.538 19.6534 24.4926 20.6176 22.9261 22.1319C21.3596 23.6462 20.3621 25.6234 20.0923 27.749C19.8225 29.8745 20.2959 32.0263 21.4372 33.8617L17.8041 37.3738C15.9914 34.9279 15.0187 31.9937 15.023 28.9849Z" fill="#B3261E"/>
</svg>
